<svg xmlns="http://www.w3.org/2000/svg"    viewBox="0 0 1440 320" preserveAspectRatio="none" style="transform:rotate(90deg);" z-index="-2"><path fill="white"  style="rotate(90deg)" fill-opacity="1" d="M0,320L17.1,309.3C34.3,299,69,277,103,272C137.1,267,171,277,206,234.7C240,192,274,96,309,90.7C342.9,85,377,171,411,192C445.7,213,480,171,514,154.7C548.6,139,583,149,617,160C651.4,171,686,181,720,197.3C754.3,213,789,235,823,202.7C857.1,171,891,85,926,85.3C960,85,994,171,1029,202.7C1062.9,235,1097,213,1131,197.3C1165.7,181,1200,171,1234,186.7C1268.6,203,1303,245,1337,250.7C1371.4,256,1406,224,1423,208L1440,192L1440,320L1422.9,320C1405.7,320,1371,320,1337,320C1302.9,320,1269,320,1234,320C1200,320,1166,320,1131,320C1097.1,320,1063,320,1029,320C994.3,320,960,320,926,320C891.4,320,857,320,823,320C788.6,320,754,320,720,320C685.7,320,651,320,617,320C582.9,320,549,320,514,320C480,320,446,320,411,320C377.1,320,343,320,309,320C274.3,320,240,320,206,320C171.4,320,137,320,103,320C68.6,320,34,320,17,320L0,320Z" ></path></svg>